<svg width="6747" height="2071" fill="none" xmlns="http://www.w3.org/2000/svg"><path d="m5807 52.2-4.04-6.32-.01.005-.03.024-.16.1c-.14.09-.36.226-.64.406-.58.36-1.43.9-2.57 1.605-2.26 1.41-5.63 3.484-10 6.127-8.74 5.285-21.49 12.84-37.53 21.896-32.08 18.114-77.25 42.214-129.59 66.149-104.95 47.997-237.65 94.82-351.26 92.31-57.37-1.268-105.04-6.045-149.97-10.77l-7.36-.775c-42.17-4.448-82.38-8.688-126.07-9.605-92.71-1.947-200.62 11.069-378.15 67.703-179.02 57.06-293.67 173.177-376.22 283.81-32.04 42.941-59.36 85.218-83.65 122.81-6.95 10.757-13.66 21.13-20.15 31.025-29.5 44.943-54.27 79.281-78.6 96.928-51.36 37.241-157.54 116.455-250.82 186.322-46.65 34.94-90.1 67.55-121.89 91.43-15.89 11.94-28.86 21.7-37.87 28.47-4.5 3.39-8.01 6.02-10.39 7.82l-2.71 2.04-.7.52-.17.13-.05.04-.01.01 3.35 4.45-3.35-4.45-3.62 2.72.73 4.48.7 4.3 1.39 8.57 8.29-2.63 261.6-83.3c-9.89 10.55-23.29 25.26-40.28 44.82-40.37 46.46-101.02 120.29-183.14 230.65-.56-.51-1.15-1.06-1.78-1.64l-16.61-15.28 4.16 22.18.3 1.6.27 1.47.82 1.26 1.83-1.2v.01l-1.82 1.19v.01l.03.04.08.12c.07.11.18.27.31.47a389.173 389.173 0 0 0 5.83 8.44c4.04 5.69 9.94 13.75 17.44 23.3 14.98 19.07 36.4 44.14 62.1 68.05 25.65 23.87 55.83 46.82 88.36 61.35 32.59 14.56 67.96 20.85 103.49 10.62l.02-.01h.01c13.01-3.79 27.35-9.76 42.74-17.42 53.77 29.53 123.51 58.31 200.58 66.38l18.78 1.97-12.31-14.32h-.01v-.01l-.03-.03-.1-.12c-.1-.12-.25-.29-.44-.51-.39-.46-.96-1.14-1.71-2.03-1.5-1.78-3.7-4.4-6.48-7.78-5.56-6.74-13.43-16.47-22.66-28.34-17.35-22.33-39.45-52.21-60.03-84.23 6.86-4.44 13.81-8.96 20.83-13.53l107.25 39.41 11.46 4.21-1.42-12.12-10.91-92.93 98.37 36.14 11.79 4.33-1.78-12.43-12.74-89.23c12.12-6.25 24.14-12.17 36.15-17.7l3.22-1.47.9-3.42 112.49-425.5 445.54-303.912-28.13 70.767c0 .01-.01.021-.01.031-46.88 115.287-114.24 186.364-169.72 228.602-27.76 21.134-52.56 35.062-70.36 43.686-8.9 4.312-16.05 7.296-20.93 9.19-2.44.948-4.32 1.622-5.56 2.054-.63.216-1.09.371-1.39.469l-.13.041-.19.064-.07.022-.01.001v.002l-.22.067-.22.083-74.4 28.2-1.81.688-1.26 1.482c-2.95 3.494-5.83 6.859-8.62 10.135-23.17 27.117-41.1 48.101-55.07 84.748-15.52 40.71-26.15 100.54-35.65 210.31l-.91 10.49 10.21-2.57c43.85-11.01 85.07-13.48 122.02-3.53 97.37 26.24 163.19 98.11 198.08 171.96 17.44 36.92 27.02 74.06 28.99 105.81 2 32.05-3.81 57.34-15.55 71.88-12.72 15.72-43.33 43.05-82.97 75.91h-85.88l-.12 7.37-1.04 62.21c-.02.02-.03.03-.05.04-1.13.88-2.3 1.78-3.44 2.68h-87.35l-.12 7.38-.94 60.57c-3.49 2.65-6.95 5.25-10.4 7.83-2.11 1.59-4.21 3.16-6.31 4.75-36.37.05-77.9-15.46-111.21-31.72-16.89-8.24-31.4-16.54-41.68-22.77-5.14-3.12-9.21-5.71-11.99-7.52-1.39-.9-2.46-1.61-3.17-2.09-.36-.24-.62-.42-.8-.54l-.16-.11-.03-.02-.05-.03-.01-.01-11.75-8.09v14.27c0 32.38 13.35 72.66 26.21 104.14 6.49 15.89 12.97 29.82 17.83 39.78 2.44 4.98 4.47 8.97 5.89 11.73.02.02.03.05.04.07l-3.07 2.19 6.56 4.37 2.12 3.93 2.22-1.05c.19.12.39.25.6.39 1.59 1.02 3.92 2.5 6.92 4.37 6.01 3.74 14.72 9 25.58 15.15 21.7 12.28 52.04 28.14 86.54 42.4 34.47 14.24 73.3 26.97 111.96 32.86 38.61 5.89 77.58 5.03 111.94-8.45 29.81-11.69 70.98-35.44 119.58-65.83 33.4-20.89 70.6-45.11 110.37-71 18.23-11.87 36.99-24.09 56.18-36.5 122.16-79.01 261.72-166.01 390.89-221.94l785.95-207.06 3.71-.97 1.38-3.58 103.7-268.7 5.28-13.69-14.19 3.74-589.99 155.42v-225.79l697.71-183.828 3.71-.976 1.38-3.576 103.7-268.7 5.28-13.692-14.19 3.74-797.39 210.12V577.38l904.91-238.428 3.71-.976 1.38-3.575 96.6-250.2.88-2.291-.64-2.372-4.2-15.5-1.95-7.188-7.2 1.898-936.67 246.785c43.27-68.264 58.23-129.652 62.02-175.187 2.04-24.565.82-44.472-.92-58.313-.88-6.921-1.88-12.328-2.68-16.045-.4-1.859-.75-3.296-1.01-4.29-.12-.496-.23-.882-.3-1.154a9.352 9.352 0 0 1-.09-.323l-.03-.097-.01-.032-.01-.012c0-.005 0-.01-7.19 2.12zm0 0-4.04-6.321 8.4-5.363 2.83 9.555L5807 52.2zm-7.19 2.119c-.01-.002-.01-.002 0 0zm-618.19 795.156 175.48-46.268-55.82 144.618-175.5 46.279 55.84-144.629zm108.98 165.535-55.82 144.72-175.5 46.28 55.84-144.74 175.48-46.26zm252-54.103-55.82 144.723-175.5 46.28 55.84-144.74 175.48-46.263zM153.038 790.667l-.002.009-.002.01-118.6 617.804-1.71 8.91h207.873l1.168-6.09L359.197 799.6h143.292l1.175-6.077 26.2-135.6 1.724-8.923H385.176l4.489-23.386.005-.022.004-.022c5.996-32.276 18.73-65.733 38.052-90.931C446.968 509.546 472.316 493.1 504 493.1c23.936 0 40.028 2.883 57.717 8.811l7.4 2.48 2.183-7.493 43.1-147.9 2.02-6.93-6.848-2.283C585.665 331.816 547.861 324 497.8 324c-78.654 0-148.354 26.762-196.109 71.309-64.623 59.917-99.064 138.673-116.257 228.977a.036.036 0 0 1-.002.011l-32.394 166.37zM809.3 1409.9l7.5.14v7.26h174.048l-.15-7.65c-1.588-81 12.252-226.84 30.642-314.1l.01-.05.01-.04 83.1-418.901 1.21-6.107-5.78-2.314C1052.51 649.166 975.982 636.8 899.9 636.8c-164.751 0-276.34 82.583-346.407 193.751C483.623 941.405 454.9 1080.76 454.9 1195.8c0 67.11 13.625 125.4 41.916 167.15 28.535 42.1 71.677 66.85 128.884 66.85 60.058 0 129.932-36.34 188.916-126.22-.662 15.12-1.457 29.92-2.255 44.48l-.267 4.88c-.919 16.74-1.822 33.19-2.498 49.36h-.296v7.6zM846.1 795c8.404 0 19.111.989 31.166 3.075l-47.818 240.635a.08.08 0 0 1-.003.02c-13.761 68.1-32.797 123.09-54.579 160.83-22.083 38.28-45.574 56.54-67.466 56.54-10.614 0-18.527-2.63-24.621-7.06-6.155-4.47-11.052-11.21-14.827-20.42-7.672-18.71-10.049-45.87-10.052-78.97.796-54.47 17.919-143.99 50.478-219.764 16.276-37.877 36.214-71.848 59.509-96.237C791.147 809.299 817.234 795 846.1 795zM1126.99 1248.61c29.48 15.49 64.96 28.58 115.01 27.19 55.5-1.5 86.3-37 86.3-84.7 0-41.6-20-70.9-72.4-112.5-64.7-52.4-95.5-118.6-95.5-183.3 0-138.7 107.8-251.1 278.9-251.1 66.3 0 114 12.3 141.7 27.7l-454.01 576.71zm0 0 .41-1.2-7.1-2.41-3.62 6.57c.39.21.78.43 1.17.64l-43.65 128.39c26.2 18.5 87.9 38.5 157.2 38.5 172.5 0 288.1-92.4 288.1-258.8 0-58.6-27.8-132.5-112.5-197.2l-280.01 285.51zm-3.07-10.18-7.84-4.32-2.88 8.48-46.1 135.6-1.81 5.3 4.58 3.24c27.84 19.65 91.2 39.87 161.53 39.87 87.52 0 161.47-23.44 213.66-68.84 52.32-45.52 81.94-112.41 81.94-197.46 0-61.11-29.03-137.1-115.33-203.07-35.24-29.178-54.17-50.29-54.17-85.03 0-23.405 8.77-42.025 24.25-54.926 15.63-13.025 38.79-20.774 68.35-20.774 30.93 0 65.06 10.427 85.59 22.117l8.21 4.677 2.69-9.061 41.6-140.2 1.71-5.766-5.26-2.922c-29.19-16.228-78.28-28.645-145.34-28.645-174.8 0-286.4 115.327-286.4 258.6 0 67.217 32.03 135.47 98.28 189.13l.03.02.03.02c25.99 20.64 43.34 37.76 54.23 54.47 10.72 16.47 15.33 32.76 15.33 52.16 0 22.22-7.15 41.03-20.21 54.44-13.05 13.39-32.64 22.06-58.79 22.76h-.01c-52.14 1.45-87.8-13.27-117.87-29.87z" fill="#000" stroke="#fff" stroke-width="15"/><mask id="a" maskUnits="userSpaceOnUse" x="1606.6" y="330.3" width="805" height="1107" fill="#000"><path fill="#fff" d="M1606.6 330.3h805v1107h-805z"/><path fill-rule="evenodd" clip-rule="evenodd" d="M2135.74 792.1 2017 1409.9h192.6l144.8-753.4H1932.2l38.5-203.4-200.3 47.7-30.8 155.6h-87.8L1625.6 792h87.8l-66.3 351.3c-7.7 37-13.9 78.6-13.9 112.5 0 101.7 57.1 166.4 172.6 166.4 37 0 80.2-3 115.6-12.3l23.1-144.8c-18.5 3.1-38.5 3.1-52.4 3.1-35.5 0-58.6-17-58.6-63.2 0-13.9 1.6-37 6.2-63.2l66.3-349.7h229.74zM2305 345.3c-67.8 0-107.8 63.2-107.8 118.6-1.5 57 26.2 101.7 87.8 101.7 57 0 109.4-43.2 110.9-120.2 1.6-52.4-27.7-100.1-90.9-100.1z"/></mask><path fill-rule="evenodd" clip-rule="evenodd" d="M2135.74 792.1 2017 1409.9h192.6l144.8-753.4H1932.2l38.5-203.4-200.3 47.7-30.8 155.6h-87.8L1625.6 792h87.8l-66.3 351.3c-7.7 37-13.9 78.6-13.9 112.5 0 101.7 57.1 166.4 172.6 166.4 37 0 80.2-3 115.6-12.3l23.1-144.8c-18.5 3.1-38.5 3.1-52.4 3.1-35.5 0-58.6-17-58.6-63.2 0-13.9 1.6-37 6.2-63.2l66.3-349.7h229.74zM2305 345.3c-67.8 0-107.8 63.2-107.8 118.6-1.5 57 26.2 101.7 87.8 101.7 57 0 109.4-43.2 110.9-120.2 1.6-52.4-27.7-100.1-90.9-100.1z" fill="#000"/><path d="m2017 1409.9-14.73-2.83-3.43 17.83H2017v-15zm118.74-617.8 14.73 2.831 3.43-17.831h-18.16v15zm73.86 617.8v15h12.39l2.34-12.17-14.73-2.83zm144.8-753.4 14.73 2.831 3.43-17.831h-18.16v15zm-126.4 0v15-15zm-66.2 0v-15 15zm-229.6 0-14.74-2.79-3.37 17.79h18.11v-15zm38.5-203.4 14.74 2.79 4.3-22.744-22.52 5.362 3.48 14.592zm-200.3 47.7-3.48-14.592-9.36 2.231-1.87 9.448 14.71 2.913zm-30.8 155.6v15h12.32l2.39-12.087-14.71-2.913zm-87.8 0v-15h-12.38l-2.35 12.155 14.73 2.845zM1625.6 792l-14.73-2.846-3.45 17.846h18.18v-15zm87.8 0 14.74 2.782L1731.5 777h-18.1v15zm-66.3 351.3 14.68 3.06.03-.14.03-.14-14.74-2.78zm274.3 266.6 3.81 14.51 9.46-2.49 1.54-9.66-14.81-2.36zm23.1-144.8 14.81 2.36 3.29-20.6-20.58 3.45 2.48 14.79zm-104.8-123.3-14.74-2.79-.02.1-.01.1 14.77 2.59zm66.3-349.7v-15h-12.42l-2.32 12.206L1906 792.1zm291.2-328.2 14.99.395.01-.198v-.197h-15zm198.7-18.5-14.99-.458-.01.083v.083l15 .292zm-364.17 967.33 118.74-617.799-29.46-5.662-118.74 617.801 29.46 5.66zm177.87-17.83H2017v30h192.6v-30zm130.07-741.231-144.8 753.401 29.46 5.66 144.8-753.399-29.46-5.662zM2228 671.5h126.4v-30H2228v30zm-66.2 0h66.2v-30h-66.2v30zm-229.6 0h229.6v-30h-229.6v30zm23.76-221.19-38.5 203.4 29.48 5.58 38.5-203.4-29.48-5.58zm-182.09 65.082 200.3-47.7-6.95-29.184-200.3 47.7 6.95 29.184zm-19.56 143.921 30.8-155.6-29.42-5.826-30.8 155.6 29.42 5.826zM1651.8 671.4h87.8v-30h-87.8v30zm-11.47 123.446 26.2-135.6-29.46-5.691-26.2 135.599 29.46 5.692zM1713.4 777h-87.8v30h87.8v-30zm-51.56 369.08 66.3-351.298-29.48-5.564-66.3 351.302 29.48 5.56zm-13.64 109.72c0-32.4 5.97-72.85 13.58-109.44l-29.37-6.12c-7.78 37.41-14.21 80.16-14.21 115.56h30zm157.6 151.4c-54.99 0-93.84-15.35-118.97-40.64-25.16-25.31-38.63-62.65-38.63-110.76h-30c0 53.59 15.08 99.45 47.35 131.91 32.29 32.49 79.74 49.49 140.25 49.49v-30zm111.79-11.81c-33.6 8.83-75.34 11.81-111.79 11.81v30c37.55 0 82.21-3.02 119.41-12.79l-7.62-29.02zm12.1-132.65-23.1 144.8 29.62 4.72 23.1-144.8-29.62-4.72zm-37.59 20.46c13.73 0 34.96.03 54.88-3.31l-4.96-29.58c-17.08 2.86-35.85 2.89-49.92 2.89v30zm-73.6-78.2c0 25.41 6.36 45.77 20.48 59.63 14.07 13.81 33.21 18.57 53.12 18.57v-30c-15.59 0-25.75-3.74-32.11-9.98-6.3-6.19-11.49-17.43-11.49-38.22h-30zm6.43-65.79c-4.74 26.99-6.43 50.96-6.43 65.79h30c0-12.97 1.51-35.2 5.97-60.61l-29.54-5.18zm66.33-349.904-66.3 349.704 29.48 5.58 66.3-349.696-29.48-5.588zm244.48-12.206H1906v30h229.74v-30zm76.46-313.2c0-50.167 36.04-103.6 92.8-103.6v-30c-78.84 0-122.8 72.967-122.8 133.6h30zm72.8 86.7c-26.82 0-44.55-9.524-55.79-23.766-11.61-14.726-17.7-36.334-17.02-62.539l-29.98-.79c-.82 30.795 6.19 60.037 23.45 81.911 17.64 22.358 44.56 35.184 79.34 35.184v-30zm95.9-105.492c-1.34 69.114-47.35 105.492-95.9 105.492v30c65.45 0 124.24-50.022 125.9-134.908l-30-.584zM2305 360.3c27.46 0 46.16 10.169 58.11 24.864 12.27 15.082 18.51 36.33 17.8 59.778l29.98.916c.89-28.952-6.72-57.754-24.5-79.622-18.1-22.255-45.65-35.936-81.39-35.936v30z" fill="#fff" mask="url(#a)"/><mask id="b" maskUnits="userSpaceOnUse" x="2310.1" y="316.5" width="1094" height="1443" fill="#000"><path fill="#fff" d="M2310.1 316.5h1094v1443h-1094z"/><path fill-rule="evenodd" clip-rule="evenodd" d="m2480.1 625.7-6.1 30.8-26.3 135.6-118.6 617.8h192.6l118.6-617.8h180.31l64.79 574.5c1.34 13.75-.91 21.36-3.61 30.51-.33 1.11-.66 2.23-.99 3.39-18.5 41.6-60 84.7-103.2 120.2-30.8 24.6-66.2 44.6-100.1 61.6l77 157.2c32.4-13.8 84.7-46.2 129.4-87.8 92.4-84.7 177.1-229.5 251.1-402.1l246.4-593.1h-194.1l-114 348.2c-26.2 80.1-41.6 131-57 192.6h-3.1c1.38-47.93.37-93.61-.9-150.97-.19-8.94-.4-18.17-.6-27.73l-4.6-362.1v-.2h-201.8l.02.2H2663.4l6.2-32.3c12.3-66.2 52.4-138.6 121.7-138.6 24.7 0 41.6 3 60.1 9.2l43.1-147.9c-23.1-7.7-60.1-15.4-109.4-15.4-77 0-144.8 26.2-191 69.3-63.1 58.5-97 135.6-114 224.9z"/></mask><path fill-rule="evenodd" clip-rule="evenodd" d="m2480.1 625.7-6.1 30.8-26.3 135.6-118.6 617.8h192.6l118.6-617.8h180.31l64.79 574.5c1.34 13.75-.91 21.36-3.61 30.51-.33 1.11-.66 2.23-.99 3.39-18.5 41.6-60 84.7-103.2 120.2-30.8 24.6-66.2 44.6-100.1 61.6l77 157.2c32.4-13.8 84.7-46.2 129.4-87.8 92.4-84.7 177.1-229.5 251.1-402.1l246.4-593.1h-194.1l-114 348.2c-26.2 80.1-41.6 131-57 192.6h-3.1c1.38-47.93.37-93.61-.9-150.97-.19-8.94-.4-18.17-.6-27.73l-4.6-362.1v-.2h-201.8l.02.2H2663.4l6.2-32.3c12.3-66.2 52.4-138.6 121.7-138.6 24.7 0 41.6 3 60.1 9.2l43.1-147.9c-23.1-7.7-60.1-15.4-109.4-15.4-77 0-144.8 26.2-191 69.3-63.1 58.5-97 135.6-114 224.9z" fill="#000"/><path d="m2474 656.5-14.71-2.914-.01.029-.01.029L2474 656.5zm6.1-30.8 14.71 2.914.01-.054.01-.055-14.73-2.805zm-32.4 166.4-14.73-2.856v.028l14.73 2.828zm-118.6 617.8-14.73-2.83-3.42 17.83h18.15v-15zm192.6 0v15h12.39l2.34-12.17-14.73-2.83zm118.6-617.8v-15h-12.39l-2.34 12.172 14.73 2.828zm180.31 0 14.91-1.681-1.5-13.319h-13.41v15zm64.79 574.5 14.93-1.45-.01-.12-.01-.11-14.91 1.68zm-3.61 30.51-14.39-4.24 14.39 4.24zm-.99 3.39 13.71 6.1.42-.96.29-1-14.42-4.14zm-103.2 120.2 9.36 11.72.08-.06.08-.07-9.52-11.59zm-100.1 61.6-6.72-13.41-13.29 6.66 6.54 13.35 13.47-6.6zm77 157.2-13.47 6.6 6.26 12.78 13.09-5.58-5.88-13.8zm129.4-87.8-10.14-11.06-.04.04-.04.04 10.22 10.98zm251.1-402.1 13.79 5.91.03-.08.03-.08-13.85-5.75zm246.4-593.1 13.85 5.755 8.62-20.755h-22.47v15zm-194.1 0v-15h-10.87l-3.39 10.333 14.26 4.667zm-114 348.2-14.26-4.67v.01l14.26 4.66zm-57 192.6v15h11.71l2.84-11.36-14.55-3.64zm-3.1 0-14.99-.43-.45 15.43h15.44v-15zm-.9-150.97 15-.33-15 .33zm-.6-27.73-15 .19v.13l15-.32zm-4.6-362.1h-15v.191l15-.191zm0-.2h15v-15h-15v15zm-201.8 0v-15h-16.79l1.88 16.681 14.91-1.681zm.02.2v15h16.79l-1.88-16.681-14.91 1.681zm-141.92 0-14.73-2.828-3.42 17.828h18.15v-15zm6.2-32.3 14.73 2.828.01-.044.01-.044-14.75-2.74zm181.8-129.4-4.77 14.223 14.8 4.96 4.37-14.986-14.4-4.197zm43.1-147.9 14.4 4.197 4.04-13.862-13.7-4.565-4.74 14.23zm-300.4 53.9 10.2 11 .01-.016.02-.016-10.23-10.968zm-105.39 258.614 6.1-30.8-29.42-5.828-6.1 30.8 29.42 5.828zm-26.28 135.542 26.3-135.6-29.46-5.712-26.3 135.6 29.46 5.712zm-118.6 617.774 118.6-617.802-29.46-5.656-118.6 617.798 29.46 5.66zm177.87-17.83h-192.6v30h192.6v-30zm103.87-605.628-118.6 617.798 29.46 5.66 118.6-617.802-29.46-5.656zm195.04-12.172H2640.3v30h180.31v-30zm79.7 587.82-64.79-574.501-29.81 3.362 64.78 574.499 29.82-3.36zm-4.13 36.44c2.86-9.72 5.77-19.56 4.15-36.21l-29.86 2.9c1.06 10.84-.53 16.22-3.07 24.82l28.78 8.49zm-.96 3.28c.31-1.1.63-2.17.96-3.28l-28.78-8.49c-.32 1.09-.67 2.27-1.02 3.49l28.84 8.28zm-108.1 127.65c43.64-35.86 87.41-80.79 107.39-125.69l-27.42-12.2c-17.02 38.3-56.25 79.57-99.01 114.71l19.04 23.18zm-102.9 63.42c34.28-17.19 70.75-37.74 102.74-63.29l-18.72-23.44c-29.61 23.65-63.94 43.1-97.46 59.91l13.44 26.82zm83.75 137.19-77-157.2-26.94 13.2 77 157.2 26.94-13.2zm105.71-92.18c-43.55 40.53-94.41 71.93-125.06 84.98l11.76 27.6c34.15-14.55 87.89-47.95 133.74-90.62l-20.44-21.96zm247.53-397.03c-73.77 172.08-157.46 314.46-247.45 396.95l20.28 22.12c94.81-86.91 180.52-234.13 254.75-407.25l-27.58-11.82zm246.34-592.945-246.4 593.105 27.7 11.5 246.4-593.095-27.7-11.51zM3187.3 671.5h194.1v-30h-194.1v30zm-99.74 337.87 114-348.203-28.52-9.334-114 348.197 28.52 9.34zm-56.71 191.57c15.28-61.11 30.56-111.63 56.71-191.58l-28.52-9.32c-26.25 80.25-41.77 131.53-57.29 193.62l29.1 7.28zm-17.65 11.36h3.1v-30h-3.1v30zm-15.89-165.63c1.27 57.43 2.27 102.72.9 150.2l29.98.86c1.4-48.37.38-94.44-.89-151.73l-29.99.67zm-.61-27.75c.21 9.57.41 18.8.61 27.75l29.99-.67c-.2-8.94-.4-18.16-.6-27.72l-30 .64zm-4.6-362.229 4.6 362.099 30-.38-4.6-362.1-30 .381zm0-.391v.2h30v-.2h-30zm-186.8 15h201.8v-30h-201.8v30zm14.93-16.481-.02-.2-29.82 3.362.03.2 29.81-3.362zM2663.4 671.5h141.92v-30H2663.4v30zm-8.53-50.128-6.2 32.3 29.46 5.656 6.2-32.3-29.46-5.656zM2791.3 470.6c-40.58 0-71.94 21.407-94.13 50.347-22.03 28.729-35.86 65.764-42.32 100.513l29.5 5.48c5.84-31.451 18.21-63.716 36.63-87.737 18.26-23.81 41.6-38.603 70.32-38.603v-30zm64.87 9.977c-20.13-6.743-38.64-9.977-64.87-9.977v30c23.17 0 38.46 2.766 55.33 8.423l9.54-28.446zm23.93-137.874-43.1 147.9 28.8 8.394 43.1-147.9-28.8-8.394zm-95 3.797c47.78 0 83.17 7.468 104.66 14.63l9.48-28.46c-24.71-8.238-63.32-16.17-114.14-16.17v30zm-180.77 65.268c43.09-40.198 107.09-65.268 180.77-65.268v-30c-80.32 0-151.92 27.33-201.23 73.332l20.46 21.936zm-109.5 216.737c16.62-87.272 49.43-161.046 109.47-216.705l-20.4-22c-66.16 61.341-101.15 141.767-118.54 233.095l29.47 5.61z" fill="#fff" mask="url(#b)"/></svg>