<svg width="6747" height="2071" viewBox="0 0 6747 2071" fill="none" xmlns="http://www.w3.org/2000/svg">
<path d="M5807 52.2C5802.96 45.8789 5802.96 45.8789 5802.96 45.8797L5802.95 45.885L5802.92 45.9088L5802.76 46.0088C5802.62 46.0987 5802.4 46.2346 5802.12 46.415C5801.54 46.7759 5800.69 47.3149 5799.55 48.02C5797.29 49.4302 5793.92 51.5045 5789.55 54.1469C5780.81 59.4317 5768.06 66.987 5752.02 76.0426C5719.94 94.1575 5674.77 118.257 5622.43 142.192C5517.48 190.189 5384.78 237.012 5271.17 234.502C5213.8 233.234 5166.13 228.457 5121.2 223.732C5118.74 223.473 5116.29 223.215 5113.84 222.957C5071.67 218.509 5031.46 214.269 4987.77 213.352C4895.06 211.405 4787.15 224.421 4609.62 281.055C4430.6 338.115 4315.95 454.232 4233.4 564.865C4201.36 607.806 4174.04 650.083 4149.75 687.675C4142.8 698.432 4136.09 708.805 4129.6 718.7C4100.1 763.643 4075.33 797.981 4051 815.628C3999.64 852.869 3893.46 932.083 3800.18 1001.95C3753.53 1036.89 3710.08 1069.5 3678.29 1093.38C3662.4 1105.32 3649.43 1115.08 3640.42 1121.85C3635.92 1125.24 3632.41 1127.87 3630.03 1129.67L3627.32 1131.71L3626.62 1132.23L3626.45 1132.36L3626.4 1132.4L3626.39 1132.41C3626.39 1132.41 3626.39 1132.41 3629.74 1136.86L3629.74 1136.86L3626.39 1132.41L3622.77 1135.13L3623.5 1139.61L3624.2 1143.91L3625.59 1152.48L3633.88 1149.85L3895.48 1066.55C3885.59 1077.1 3872.19 1091.81 3855.2 1111.37C3814.83 1157.83 3754.18 1231.66 3672.06 1342.02C3671.5 1341.51 3670.91 1340.96 3670.28 1340.38L3653.67 1325.1L3657.83 1347.28L3658.13 1348.88L3658.4 1350.35L3659.22 1351.61L3661.05 1350.41L3661.05 1350.42C3659.23 1351.61 3659.23 1351.61 3659.23 1351.61L3659.23 1351.62L3659.26 1351.66L3659.34 1351.78C3659.41 1351.89 3659.52 1352.05 3659.65 1352.25C3659.93 1352.67 3660.33 1353.26 3660.86 1354.04C3661.91 1355.59 3663.46 1357.84 3665.48 1360.69C3669.52 1366.38 3675.42 1374.44 3682.92 1383.99C3697.9 1403.06 3719.32 1428.13 3745.02 1452.04C3770.67 1475.91 3800.85 1498.86 3833.38 1513.39C3865.97 1527.95 3901.34 1534.24 3936.87 1524.01L3936.89 1524L3936.9 1524C3949.91 1520.21 3964.25 1514.24 3979.64 1506.58C4033.41 1536.11 4103.15 1564.89 4180.22 1572.96L4199 1574.93L4186.69 1560.61L4186.68 1560.61L4186.68 1560.6L4186.65 1560.57L4186.55 1560.45C4186.45 1560.33 4186.3 1560.16 4186.11 1559.94C4185.72 1559.48 4185.15 1558.8 4184.4 1557.91C4182.9 1556.13 4180.7 1553.51 4177.92 1550.13C4172.36 1543.39 4164.49 1533.66 4155.26 1521.79C4137.91 1499.46 4115.81 1469.58 4095.23 1437.56C4102.09 1433.12 4109.04 1428.6 4116.06 1424.03L4223.31 1463.44L4234.77 1467.65L4233.35 1455.53L4222.44 1362.6L4320.81 1398.74L4332.6 1403.07L4330.82 1390.64L4318.08 1301.41C4330.2 1295.16 4342.22 1289.24 4354.23 1283.71L4357.45 1282.24L4358.35 1278.82L4470.84 853.32L4916.38 549.408L4888.25 620.175C4888.25 620.185 4888.24 620.196 4888.24 620.206C4841.36 735.493 4774 806.57 4718.52 848.808C4690.76 869.942 4665.96 883.87 4648.16 892.494C4639.26 896.806 4632.11 899.79 4627.23 901.684C4624.79 902.632 4622.91 903.306 4621.67 903.738C4621.04 903.954 4620.58 904.109 4620.28 904.207L4620.15 904.248C4620.07 904.276 4620 904.298 4619.96 904.312L4619.89 904.334L4619.88 904.335L4619.88 904.336L4619.88 904.337L4619.66 904.404L4619.44 904.487L4545.04 932.687L4543.23 933.375L4541.97 934.857C4539.02 938.351 4536.14 941.716 4533.35 944.992C4510.18 972.109 4492.25 993.093 4478.28 1029.74C4462.76 1070.45 4452.13 1130.28 4442.63 1240.05L4441.72 1250.54L4451.93 1247.97C4495.78 1236.96 4537 1234.49 4573.95 1244.44C4671.32 1270.68 4737.14 1342.55 4772.03 1416.4C4789.47 1453.32 4799.05 1490.46 4801.02 1522.21C4803.02 1554.26 4797.21 1579.55 4785.47 1594.09C4772.75 1609.81 4742.14 1637.14 4702.5 1670H4624H4616.62L4616.5 1677.37L4615.46 1739.58C4615.44 1739.6 4615.43 1739.61 4615.41 1739.62C4614.28 1740.5 4613.11 1741.4 4611.97 1742.3H4532H4524.62L4524.5 1749.68L4523.56 1810.25C4520.07 1812.9 4516.61 1815.5 4513.16 1818.08C4511.05 1819.67 4508.95 1821.24 4506.85 1822.83C4470.48 1822.88 4428.95 1807.37 4395.64 1791.11C4378.75 1782.87 4364.24 1774.57 4353.96 1768.34C4348.82 1765.22 4344.75 1762.63 4341.97 1760.82C4340.58 1759.92 4339.51 1759.21 4338.8 1758.73C4338.44 1758.49 4338.18 1758.31 4338 1758.19L4337.84 1758.08L4337.81 1758.06L4337.76 1758.03L4337.75 1758.02L4337.75 1758.02L4326 1749.93V1764.2C4326 1796.58 4339.35 1836.86 4352.21 1868.34C4358.7 1884.23 4365.18 1898.16 4370.04 1908.12C4372.48 1913.1 4374.51 1917.09 4375.93 1919.85C4375.95 1919.87 4375.96 1919.9 4375.97 1919.92L4372.9 1922.11L4379.46 1926.48L4381.58 1930.41L4383.8 1929.36C4383.99 1929.48 4384.19 1929.61 4384.4 1929.75C4385.99 1930.77 4388.32 1932.25 4391.32 1934.12C4397.33 1937.86 4406.04 1943.12 4416.9 1949.27C4438.6 1961.55 4468.94 1977.41 4503.44 1991.67C4537.91 2005.91 4576.74 2018.64 4615.4 2024.53C4654.01 2030.42 4692.98 2029.56 4727.34 2016.08C4757.15 2004.39 4798.32 1980.64 4846.92 1950.25C4880.32 1929.36 4917.52 1905.14 4957.29 1879.25C4975.52 1867.38 4994.28 1855.16 5013.47 1842.75C5135.63 1763.74 5275.19 1676.74 5404.36 1620.81L6190.31 1413.75L6194.02 1412.78L6195.4 1409.2L6299.1 1140.5L6304.38 1126.81L6290.19 1130.55L5700.2 1285.97V1060.18L6397.91 876.352L6401.62 875.376L6403 871.8L6506.7 603.1L6511.98 589.408L6497.79 593.148L5700.4 803.268V577.38L6605.31 338.952L6609.02 337.976L6610.4 334.401L6707 84.2013L6707.88 81.9095L6707.24 79.5383L6703.04 64.0383L6701.09 56.85L6693.89 58.7475L5757.22 305.533C5800.49 237.269 5815.45 175.881 5819.24 130.346C5821.28 105.781 5820.06 85.8735 5818.32 72.0328C5817.44 65.112 5816.44 59.7053 5815.64 55.9878C5815.24 54.129 5814.89 52.6919 5814.63 51.6986C5814.51 51.2019 5814.4 50.8161 5814.33 50.5438C5814.29 50.4077 5814.26 50.3 5814.24 50.221L5814.21 50.1241L5814.2 50.0919L5814.19 50.0798C5814.19 50.075 5814.19 50.0705 5807 52.2ZM5807 52.2L5802.96 45.8789L5811.36 40.5155L5814.19 50.0705L5807 52.2ZM5799.81 54.3188C5799.8 54.3171 5799.8 54.3172 5799.81 54.319L5799.81 54.3188ZM5181.62 849.475L5357.1 803.207L5301.28 947.825L5125.78 994.104L5181.62 849.475ZM5290.6 1015.01L5234.78 1159.73L5059.28 1206.01L5115.12 1061.27L5290.6 1015.01ZM5542.6 960.907L5486.78 1105.63L5311.28 1151.91L5367.12 1007.17L5542.6 960.907Z" fill="black" stroke="white" stroke-width="15"/>
<path d="M153.038 790.667L153.036 790.676L153.034 790.686L34.4343 1408.49L32.7231 1417.4H41.7998H234.4H240.597L241.765 1411.31L359.197 799.6H496.3H502.489L503.664 793.523L529.864 657.923L531.588 649H522.5H385.176L389.665 625.614L389.67 625.592L389.674 625.57C395.67 593.294 408.404 559.837 427.726 534.639C446.968 509.546 472.316 493.1 504 493.1C527.936 493.1 544.028 495.983 561.717 501.911L569.117 504.391L571.3 496.898L614.4 348.998L616.42 342.068L609.572 339.785C585.665 331.816 547.861 324 497.8 324C419.146 324 349.446 350.762 301.691 395.309C237.068 455.226 202.627 533.982 185.434 624.286C185.434 624.29 185.433 624.294 185.432 624.297L153.038 790.667Z" fill="black" stroke="white" stroke-width="15"/>
<path d="M809.3 1409.9L816.8 1410.04V1417.3H983.2H990.848L990.698 1409.65C989.11 1328.65 1002.95 1182.81 1021.34 1095.55L1021.35 1095.5L1021.36 1095.46L1104.46 676.559L1105.67 670.452L1099.89 668.138C1052.51 649.166 975.982 636.8 899.9 636.8C735.149 636.8 623.56 719.383 553.493 830.551C483.623 941.405 454.9 1080.76 454.9 1195.8C454.9 1262.91 468.525 1321.2 496.816 1362.95C525.351 1405.05 568.493 1429.8 625.7 1429.8C685.758 1429.8 755.632 1393.46 814.616 1303.58C813.954 1318.7 813.159 1333.5 812.361 1348.06C812.272 1349.69 812.183 1351.32 812.094 1352.94C811.175 1369.68 810.272 1386.13 809.596 1402.3H809.3V1409.8V1409.9ZM846.1 795C854.504 795 865.211 795.989 877.266 798.075L829.448 1038.71C829.447 1038.72 829.446 1038.73 829.445 1038.73C815.684 1106.83 796.648 1161.82 774.866 1199.56C752.783 1237.84 729.292 1256.1 707.4 1256.1C696.786 1256.1 688.873 1253.47 682.779 1249.04C676.624 1244.57 671.727 1237.83 667.952 1228.62C660.28 1209.91 657.903 1182.75 657.9 1149.65C658.696 1095.18 675.819 1005.66 708.378 929.886C724.654 892.009 744.592 858.038 767.887 833.649C791.147 809.299 817.234 795 846.1 795Z" fill="black" stroke="white" stroke-width="15"/>
<path d="M1126.99 1248.61C1156.47 1264.1 1191.95 1277.19 1242 1275.8C1297.5 1274.3 1328.3 1238.8 1328.3 1191.1C1328.3 1149.5 1308.3 1120.2 1255.9 1078.6C1191.2 1026.2 1160.4 960 1160.4 895.3C1160.4 756.6 1268.2 644.2 1439.3 644.2C1505.6 644.2 1553.3 656.5 1581 671.9L1126.99 1248.61ZM1126.99 1248.61L1127.4 1247.41L1120.3 1245L1116.68 1251.57C1117.07 1251.78 1117.46 1252 1117.85 1252.21L1074.2 1380.6C1100.4 1399.1 1162.1 1419.1 1231.4 1419.1C1403.9 1419.1 1519.5 1326.7 1519.5 1160.3C1519.5 1101.7 1491.7 1027.8 1407 963.1L1126.99 1248.61ZM1123.92 1238.43L1116.08 1234.11L1113.2 1242.59L1067.1 1378.19L1065.29 1383.49L1069.87 1386.73C1097.71 1406.38 1161.07 1426.6 1231.4 1426.6C1318.92 1426.6 1392.87 1403.16 1445.06 1357.76C1497.38 1312.24 1527 1245.35 1527 1160.3C1527 1099.19 1497.97 1023.2 1411.67 957.23C1376.43 928.052 1357.5 906.94 1357.5 872.2C1357.5 848.795 1366.27 830.175 1381.75 817.274C1397.38 804.249 1420.54 796.5 1450.1 796.5C1481.03 796.5 1515.16 806.927 1535.69 818.617L1543.9 823.294L1546.59 814.233L1588.19 674.033L1589.9 668.267L1584.64 665.345C1555.45 649.117 1506.36 636.7 1439.3 636.7C1264.5 636.7 1152.9 752.027 1152.9 895.3C1152.9 962.517 1184.93 1030.77 1251.18 1084.43L1251.21 1084.45L1251.24 1084.47C1277.23 1105.11 1294.58 1122.23 1305.47 1138.94C1316.19 1155.41 1320.8 1171.7 1320.8 1191.1C1320.8 1213.32 1313.65 1232.13 1300.59 1245.54C1287.54 1258.93 1267.95 1267.6 1241.8 1268.3L1241.79 1268.3C1189.65 1269.75 1153.99 1255.03 1123.92 1238.43Z" fill="black" stroke="white" stroke-width="15"/>
<mask id="path-5-outside-1" maskUnits="userSpaceOnUse" x="1606.6" y="330.3" width="805" height="1107" fill="black">
<rect fill="white" x="1606.6" y="330.3" width="805" height="1107"/>
<path fill-rule="evenodd" clip-rule="evenodd" d="M2135.74 792.1L2017 1409.9H2209.6L2354.4 656.5L2228 656.5L2161.8 656.5L1932.2 656.5L1970.7 453.1L1770.4 500.8L1739.6 656.4H1651.8L1625.6 792H1713.4L1647.1 1143.3C1639.4 1180.3 1633.2 1221.9 1633.2 1255.8C1633.2 1357.5 1690.3 1422.2 1805.8 1422.2C1842.8 1422.2 1886 1419.2 1921.4 1409.9L1944.5 1265.1C1926 1268.2 1906 1268.2 1892.1 1268.2C1856.6 1268.2 1833.5 1251.2 1833.5 1205C1833.5 1191.1 1835.1 1168 1839.7 1141.8L1906 792.1H2135.74ZM2305 345.3C2237.2 345.3 2197.2 408.5 2197.2 463.9C2195.7 520.9 2223.4 565.6 2285 565.6C2342 565.6 2394.4 522.4 2395.9 445.4C2397.5 393 2368.2 345.3 2305 345.3Z"/>
</mask>
<path fill-rule="evenodd" clip-rule="evenodd" d="M2135.74 792.1L2017 1409.9H2209.6L2354.4 656.5L2228 656.5L2161.8 656.5L1932.2 656.5L1970.7 453.1L1770.4 500.8L1739.6 656.4H1651.8L1625.6 792H1713.4L1647.1 1143.3C1639.4 1180.3 1633.2 1221.9 1633.2 1255.8C1633.2 1357.5 1690.3 1422.2 1805.8 1422.2C1842.8 1422.2 1886 1419.2 1921.4 1409.9L1944.5 1265.1C1926 1268.2 1906 1268.2 1892.1 1268.2C1856.6 1268.2 1833.5 1251.2 1833.5 1205C1833.5 1191.1 1835.1 1168 1839.7 1141.8L1906 792.1H2135.74ZM2305 345.3C2237.2 345.3 2197.2 408.5 2197.2 463.9C2195.7 520.9 2223.4 565.6 2285 565.6C2342 565.6 2394.4 522.4 2395.9 445.4C2397.5 393 2368.2 345.3 2305 345.3Z" fill="black"/>
<path d="M2017 1409.9L2002.27 1407.07L1998.84 1424.9H2017V1409.9ZM2135.74 792.1L2150.47 794.931L2153.9 777.1H2135.74V792.1ZM2209.6 1409.9V1424.9H2221.99L2224.33 1412.73L2209.6 1409.9ZM2354.4 656.5L2369.13 659.331L2372.56 641.5H2354.4V656.5ZM2228 656.5V671.5V656.5ZM2161.8 656.5V641.5V656.5ZM1932.2 656.5L1917.46 653.71L1914.09 671.5H1932.2V656.5ZM1970.7 453.1L1985.44 455.89L1989.74 433.146L1967.22 438.508L1970.7 453.1ZM1770.4 500.8L1766.92 486.208L1757.56 488.439L1755.69 497.887L1770.4 500.8ZM1739.6 656.4V671.4H1751.92L1754.31 659.313L1739.6 656.4ZM1651.8 656.4V641.4H1639.42L1637.07 653.555L1651.8 656.4ZM1625.6 792L1610.87 789.154L1607.42 807H1625.6V792ZM1713.4 792L1728.14 794.782L1731.5 777H1713.4V792ZM1647.1 1143.3L1661.78 1146.36L1661.81 1146.22L1661.84 1146.08L1647.1 1143.3ZM1921.4 1409.9L1925.21 1424.41L1934.67 1421.92L1936.21 1412.26L1921.4 1409.9ZM1944.5 1265.1L1959.31 1267.46L1962.6 1246.86L1942.02 1250.31L1944.5 1265.1ZM1839.7 1141.8L1824.96 1139.01L1824.94 1139.11L1824.93 1139.21L1839.7 1141.8ZM1906 792.1V777.1H1893.58L1891.26 789.306L1906 792.1ZM2197.2 463.9L2212.19 464.295L2212.2 464.097V463.9H2197.2ZM2395.9 445.4L2380.91 444.942L2380.9 445.025L2380.9 445.108L2395.9 445.4ZM2031.73 1412.73L2150.47 794.931L2121.01 789.269L2002.27 1407.07L2031.73 1412.73ZM2209.6 1394.9H2017V1424.9H2209.6V1394.9ZM2339.67 653.669L2194.87 1407.07L2224.33 1412.73L2369.13 659.331L2339.67 653.669ZM2228 671.5L2354.4 671.5V641.5L2228 641.5V671.5ZM2161.8 671.5L2228 671.5V641.5L2161.8 641.5V671.5ZM1932.2 671.5L2161.8 671.5V641.5L1932.2 641.5V671.5ZM1955.96 450.31L1917.46 653.71L1946.94 659.29L1985.44 455.89L1955.96 450.31ZM1773.87 515.392L1974.17 467.692L1967.22 438.508L1766.92 486.208L1773.87 515.392ZM1754.31 659.313L1785.11 503.713L1755.69 497.887L1724.89 653.487L1754.31 659.313ZM1651.8 671.4H1739.6V641.4H1651.8V671.4ZM1640.33 794.846L1666.53 659.246L1637.07 653.555L1610.87 789.154L1640.33 794.846ZM1713.4 777H1625.6V807H1713.4V777ZM1661.84 1146.08L1728.14 794.782L1698.66 789.218L1632.36 1140.52L1661.84 1146.08ZM1648.2 1255.8C1648.2 1223.4 1654.17 1182.95 1661.78 1146.36L1632.41 1140.24C1624.63 1177.65 1618.2 1220.4 1618.2 1255.8H1648.2ZM1805.8 1407.2C1750.81 1407.2 1711.96 1391.85 1686.83 1366.56C1661.67 1341.25 1648.2 1303.91 1648.2 1255.8H1618.2C1618.2 1309.39 1633.28 1355.25 1665.55 1387.71C1697.84 1420.2 1745.29 1437.2 1805.8 1437.2V1407.2ZM1917.59 1395.39C1883.99 1404.22 1842.25 1407.2 1805.8 1407.2V1437.2C1843.35 1437.2 1888.01 1434.18 1925.21 1424.41L1917.59 1395.39ZM1929.69 1262.74L1906.59 1407.54L1936.21 1412.26L1959.31 1267.46L1929.69 1262.74ZM1892.1 1283.2C1905.83 1283.2 1927.06 1283.23 1946.98 1279.89L1942.02 1250.31C1924.94 1253.17 1906.17 1253.2 1892.1 1253.2V1283.2ZM1818.5 1205C1818.5 1230.41 1824.86 1250.77 1838.98 1264.63C1853.05 1278.44 1872.19 1283.2 1892.1 1283.2V1253.2C1876.51 1253.2 1866.35 1249.46 1859.99 1243.22C1853.69 1237.03 1848.5 1225.79 1848.5 1205H1818.5ZM1824.93 1139.21C1820.19 1166.2 1818.5 1190.17 1818.5 1205H1848.5C1848.5 1192.03 1850.01 1169.8 1854.47 1144.39L1824.93 1139.21ZM1891.26 789.306L1824.96 1139.01L1854.44 1144.59L1920.74 794.894L1891.26 789.306ZM2135.74 777.1H1906V807.1H2135.74V777.1ZM2212.2 463.9C2212.2 413.733 2248.24 360.3 2305 360.3V330.3C2226.16 330.3 2182.2 403.267 2182.2 463.9H2212.2ZM2285 550.6C2258.18 550.6 2240.45 541.076 2229.21 526.834C2217.6 512.108 2211.51 490.5 2212.19 464.295L2182.21 463.505C2181.39 494.3 2188.4 523.542 2205.66 545.416C2223.3 567.774 2250.22 580.6 2285 580.6V550.6ZM2380.9 445.108C2379.56 514.222 2333.55 550.6 2285 550.6V580.6C2350.45 580.6 2409.24 530.578 2410.9 445.692L2380.9 445.108ZM2305 360.3C2332.46 360.3 2351.16 370.469 2363.11 385.164C2375.38 400.246 2381.62 421.494 2380.91 444.942L2410.89 445.858C2411.78 416.906 2404.17 388.104 2386.39 366.236C2368.29 343.981 2340.74 330.3 2305 330.3V360.3Z" fill="white" mask="url(#path-5-outside-1)"/>
<mask id="path-7-outside-2" maskUnits="userSpaceOnUse" x="2310.1" y="316.5" width="1094" height="1443" fill="black">
<rect fill="white" x="2310.1" y="316.5" width="1094" height="1443"/>
<path fill-rule="evenodd" clip-rule="evenodd" d="M2480.1 625.7L2474 656.5L2447.7 792.1L2329.1 1409.9H2521.7L2640.3 792.1H2820.61L2885.4 1366.6C2886.74 1380.35 2884.49 1387.96 2881.79 1397.11C2881.46 1398.22 2881.13 1399.34 2880.8 1400.5C2862.3 1442.1 2820.8 1485.2 2777.6 1520.7C2746.8 1545.3 2711.4 1565.3 2677.5 1582.3L2754.5 1739.5C2786.9 1725.7 2839.2 1693.3 2883.9 1651.7C2976.3 1567 3061 1422.2 3135 1249.6L3381.4 656.5H3187.3L3073.3 1004.7C3047.1 1084.8 3031.7 1135.7 3016.3 1197.3H3013.2C3014.58 1149.37 3013.57 1103.69 3012.3 1046.33C3012.11 1037.39 3011.9 1028.16 3011.7 1018.6L3007.1 656.5V656.3H2805.3L2805.32 656.5H2663.4L2669.6 624.2C2681.9 558 2722 485.6 2791.3 485.6C2816 485.6 2832.9 488.6 2851.4 494.8L2894.5 346.9C2871.4 339.2 2834.4 331.5 2785.1 331.5C2708.1 331.5 2640.3 357.7 2594.1 400.8C2531 459.3 2497.1 536.4 2480.1 625.7Z"/>
</mask>
<path fill-rule="evenodd" clip-rule="evenodd" d="M2480.1 625.7L2474 656.5L2447.7 792.1L2329.1 1409.9H2521.7L2640.3 792.1H2820.61L2885.4 1366.6C2886.74 1380.35 2884.49 1387.96 2881.79 1397.11C2881.46 1398.22 2881.13 1399.34 2880.8 1400.5C2862.3 1442.1 2820.8 1485.2 2777.6 1520.7C2746.8 1545.3 2711.4 1565.3 2677.5 1582.3L2754.5 1739.5C2786.9 1725.7 2839.2 1693.3 2883.9 1651.7C2976.3 1567 3061 1422.2 3135 1249.6L3381.4 656.5H3187.3L3073.3 1004.7C3047.1 1084.8 3031.7 1135.7 3016.3 1197.3H3013.2C3014.58 1149.37 3013.57 1103.69 3012.3 1046.33C3012.11 1037.39 3011.9 1028.16 3011.7 1018.6L3007.1 656.5V656.3H2805.3L2805.32 656.5H2663.4L2669.6 624.2C2681.9 558 2722 485.6 2791.3 485.6C2816 485.6 2832.9 488.6 2851.4 494.8L2894.5 346.9C2871.4 339.2 2834.4 331.5 2785.1 331.5C2708.1 331.5 2640.3 357.7 2594.1 400.8C2531 459.3 2497.1 536.4 2480.1 625.7Z" fill="black"/>
<path d="M2474 656.5L2459.29 653.586L2459.28 653.615L2459.27 653.644L2474 656.5ZM2480.1 625.7L2494.81 628.614L2494.82 628.56L2494.83 628.505L2480.1 625.7ZM2447.7 792.1L2432.97 789.244L2432.97 789.258L2432.97 789.272L2447.7 792.1ZM2329.1 1409.9L2314.37 1407.07L2310.95 1424.9H2329.1V1409.9ZM2521.7 1409.9V1424.9H2534.09L2536.43 1412.73L2521.7 1409.9ZM2640.3 792.1V777.1H2627.91L2625.57 789.272L2640.3 792.1ZM2820.61 792.1L2835.52 790.419L2834.02 777.1H2820.61V792.1ZM2885.4 1366.6L2900.33 1365.15L2900.32 1365.03L2900.31 1364.92L2885.4 1366.6ZM2881.79 1397.11L2867.4 1392.87L2867.4 1392.87L2881.79 1397.11ZM2880.8 1400.5L2894.51 1406.6L2894.93 1405.64L2895.22 1404.64L2880.8 1400.5ZM2777.6 1520.7L2786.96 1532.42L2787.04 1532.36L2787.12 1532.29L2777.6 1520.7ZM2677.5 1582.3L2670.78 1568.89L2657.49 1575.55L2664.03 1588.9L2677.5 1582.3ZM2754.5 1739.5L2741.03 1746.1L2747.29 1758.88L2760.38 1753.3L2754.5 1739.5ZM2883.9 1651.7L2873.76 1640.64L2873.72 1640.68L2873.68 1640.72L2883.9 1651.7ZM3135 1249.6L3148.79 1255.51L3148.82 1255.43L3148.85 1255.35L3135 1249.6ZM3381.4 656.5L3395.25 662.255L3403.87 641.5H3381.4V656.5ZM3187.3 656.5V641.5H3176.43L3173.04 651.833L3187.3 656.5ZM3073.3 1004.7L3059.04 1000.03L3059.04 1000.04L3073.3 1004.7ZM3016.3 1197.3V1212.3H3028.01L3030.85 1200.94L3016.3 1197.3ZM3013.2 1197.3L2998.21 1196.87L2997.76 1212.3H3013.2V1197.3ZM3012.3 1046.33L3027.3 1046L3012.3 1046.33ZM3011.7 1018.6L2996.7 1018.79L2996.7 1018.85L2996.7 1018.92L3011.7 1018.6ZM3007.1 656.5H2992.1V656.595L2992.1 656.691L3007.1 656.5ZM3007.1 656.3H3022.1V641.3H3007.1V656.3ZM2805.3 656.3V641.3H2788.51L2790.39 657.981L2805.3 656.3ZM2805.32 656.5V671.5H2822.11L2820.23 654.819L2805.32 656.5ZM2663.4 656.5L2648.67 653.672L2645.25 671.5H2663.4V656.5ZM2669.6 624.2L2684.33 627.028L2684.34 626.984L2684.35 626.94L2669.6 624.2ZM2851.4 494.8L2846.63 509.023L2861.43 513.983L2865.8 498.997L2851.4 494.8ZM2894.5 346.9L2908.9 351.097L2912.94 337.235L2899.24 332.67L2894.5 346.9ZM2594.1 400.8L2604.3 411.8L2604.31 411.784L2604.33 411.768L2594.1 400.8ZM2488.71 659.414L2494.81 628.614L2465.39 622.786L2459.29 653.586L2488.71 659.414ZM2462.43 794.956L2488.73 659.356L2459.27 653.644L2432.97 789.244L2462.43 794.956ZM2343.83 1412.73L2462.43 794.928L2432.97 789.272L2314.37 1407.07L2343.83 1412.73ZM2521.7 1394.9H2329.1V1424.9H2521.7V1394.9ZM2625.57 789.272L2506.97 1407.07L2536.43 1412.73L2655.03 794.928L2625.57 789.272ZM2820.61 777.1H2640.3V807.1H2820.61V777.1ZM2900.31 1364.92L2835.52 790.419L2805.71 793.781L2870.49 1368.28L2900.31 1364.92ZM2896.18 1401.36C2899.04 1391.64 2901.95 1381.8 2900.33 1365.15L2870.47 1368.05C2871.53 1378.89 2869.94 1384.27 2867.4 1392.87L2896.18 1401.36ZM2895.22 1404.64C2895.53 1403.54 2895.85 1402.47 2896.18 1401.36L2867.4 1392.87C2867.08 1393.96 2866.73 1395.14 2866.38 1396.36L2895.22 1404.64ZM2787.12 1532.29C2830.76 1496.43 2874.53 1451.5 2894.51 1406.6L2867.09 1394.4C2850.07 1432.7 2810.84 1473.97 2768.08 1509.11L2787.12 1532.29ZM2684.22 1595.71C2718.5 1578.52 2754.97 1557.97 2786.96 1532.42L2768.24 1508.98C2738.63 1532.63 2704.3 1552.08 2670.78 1568.89L2684.22 1595.71ZM2767.97 1732.9L2690.97 1575.7L2664.03 1588.9L2741.03 1746.1L2767.97 1732.9ZM2873.68 1640.72C2830.13 1681.25 2779.27 1712.65 2748.62 1725.7L2760.38 1753.3C2794.53 1738.75 2848.27 1705.35 2894.12 1662.68L2873.68 1640.72ZM3121.21 1243.69C3047.44 1415.77 2963.75 1558.15 2873.76 1640.64L2894.04 1662.76C2988.85 1575.85 3074.56 1428.63 3148.79 1255.51L3121.21 1243.69ZM3367.55 650.745L3121.15 1243.85L3148.85 1255.35L3395.25 662.255L3367.55 650.745ZM3187.3 671.5H3381.4V641.5H3187.3V671.5ZM3087.56 1009.37L3201.56 661.167L3173.04 651.833L3059.04 1000.03L3087.56 1009.37ZM3030.85 1200.94C3046.13 1139.83 3061.41 1089.31 3087.56 1009.36L3059.04 1000.04C3032.79 1080.29 3017.27 1131.57 3001.75 1193.66L3030.85 1200.94ZM3013.2 1212.3H3016.3V1182.3H3013.2V1212.3ZM2997.31 1046.67C2998.58 1104.1 2999.58 1149.39 2998.21 1196.87L3028.19 1197.73C3029.59 1149.36 3028.57 1103.29 3027.3 1046L2997.31 1046.67ZM2996.7 1018.92C2996.91 1028.49 2997.11 1037.72 2997.31 1046.67L3027.3 1046C3027.1 1037.06 3026.9 1027.84 3026.7 1018.28L2996.7 1018.92ZM2992.1 656.691L2996.7 1018.79L3026.7 1018.41L3022.1 656.31L2992.1 656.691ZM2992.1 656.3V656.5H3022.1V656.3H2992.1ZM2805.3 671.3H3007.1V641.3H2805.3V671.3ZM2820.23 654.819L2820.21 654.619L2790.39 657.981L2790.42 658.181L2820.23 654.819ZM2663.4 671.5H2805.32V641.5H2663.4V671.5ZM2654.87 621.372L2648.67 653.672L2678.13 659.328L2684.33 627.028L2654.87 621.372ZM2791.3 470.6C2750.72 470.6 2719.36 492.007 2697.17 520.947C2675.14 549.676 2661.31 586.711 2654.85 621.46L2684.35 626.94C2690.19 595.489 2702.56 563.224 2720.98 539.203C2739.24 515.393 2762.58 500.6 2791.3 500.6V470.6ZM2856.17 480.577C2836.04 473.834 2817.53 470.6 2791.3 470.6V500.6C2814.47 500.6 2829.76 503.366 2846.63 509.023L2856.17 480.577ZM2880.1 342.703L2837 490.603L2865.8 498.997L2908.9 351.097L2880.1 342.703ZM2785.1 346.5C2832.88 346.5 2868.27 353.968 2889.76 361.13L2899.24 332.67C2874.53 324.432 2835.92 316.5 2785.1 316.5V346.5ZM2604.33 411.768C2647.42 371.57 2711.42 346.5 2785.1 346.5V316.5C2704.78 316.5 2633.18 343.83 2583.87 389.832L2604.33 411.768ZM2494.83 628.505C2511.45 541.233 2544.26 467.459 2604.3 411.8L2583.9 389.8C2517.74 451.141 2482.75 531.567 2465.36 622.895L2494.83 628.505Z" fill="white" mask="url(#path-7-outside-2)"/>
</svg>
